<svg width="137" height="68" fill="none" xmlns="http://www.w3.org/2000/svg"><path d="M42.42 51.282c-1.277-3.548-3.904-5.322-7.88-5.323h-1.255v21.886h1.255c3.073 0 5.342-1.212 6.806-3.635 1.233-2.068 1.85-4.7 1.85-7.895-.003-1.901-.262-3.578-.776-5.033ZM20.884 51.545c1.278 3.548 3.904 5.322 7.879 5.322h1.255V34.98h-1.255c-3.074 0-5.343 1.212-6.807 3.635-1.23 2.067-1.844 4.7-1.845 7.895 0 1.899.258 3.577.773 5.034ZM0 .027h16.698v5.797H5.994v2.898h8.892v5.5H5.994v2.931h10.704v5.797H0V.027ZM25.095 0H46.7L35.897 23.416 25.096 0Zm10.803 20.518 8.925-19.3H27.005l8.893 19.3ZM55.329.027h16.698v5.797H61.323v2.898h8.892v5.5h-8.892v2.931h10.704v5.797H55.329V.027ZM82.302 22.917V0h1.285l16.006 15.578V0h1.218v22.922l-18.509-.005ZM118.3 22.95V5.824h-8.662V.027h18.509v5.797h-8.662V22.95H118.3ZM9.846 39.549c1.45 0 2.602.22 3.458.659a5.75 5.75 0 0 1 3.228 5.27 5.506 5.506 0 0 1-.856 2.98 6.082 6.082 0 0 1-2.339 2.157 6.508 6.508 0 0 1 2.997 2.173 5.505 5.505 0 0 1 1.219 3.492 5.94 5.94 0 0 1-.873 3.145 6.353 6.353 0 0 1-2.322 2.256 6.126 6.126 0 0 1-1.614.593c-.592.131-1.383.197-2.37.197H.228V39.55h9.617ZM48.462 60.808c-1.724-1.504-2.574-3.76-2.552-6.768h5.368c-.022 1.252.351 2.207 1.12 2.865.768.659 1.844.988 3.227.988 1.142 0 2.042-.186 2.7-.56.66-.373.989-.944.989-1.712 0-.637-.335-1.098-1.005-1.383a9.411 9.411 0 0 0-1.992-.61c-.659-.12-1.065-.194-1.219-.22a26.416 26.416 0 0 1-4.38-1.207 7.636 7.636 0 0 1-3.096-2.14c-.834-.967-1.251-2.24-1.251-3.821 0-1.58.417-2.926 1.251-4.034.834-1.11 1.949-1.938 3.343-2.487 1.455-.56 3.003-.84 4.561-.823 1.998 0 3.727.373 5.188 1.12 1.46.746 2.607 1.877 3.441 3.392.387.64.645 1.351.758 2.091.086.65.13 1.304.132 1.96h-5.369c0-1.186-.318-2.059-.955-2.619S57.096 44 55.757 44c-1.076 0-1.91.187-2.503.56-.593.374-.89.879-.89 1.515 0 .703.396 1.219 1.186 1.548a17.8 17.8 0 0 0 2.997.89c1.977.395 3.519.773 4.628 1.136a6.477 6.477 0 0 1 2.882 1.926c.812.923 1.218 2.218 1.218 3.887 0 1.58-.44 2.942-1.317 4.084-.879 1.141-2.037 2.014-3.475 2.618-1.477.611-3.062.92-4.66.906-3.184-.004-5.637-.758-7.361-2.262ZM78.778 62.471V45.345h-8.662V39.55h18.51v5.796h-8.662v17.126h-1.186ZM94.85 39.549h16.698v5.796h-10.704v2.899h8.893v5.5h-8.893v2.93h10.704v5.797H94.85V39.55ZM136.281 62.471h-17.62V39.55h8.925c1.91 0 3.469.34 4.677 1.02a7.117 7.117 0 0 1 2.766 2.701 7.431 7.431 0 0 1 .988 3.788 7.263 7.263 0 0 1-1.581 4.594 7.44 7.44 0 0 1-3.985 2.684l5.83 8.135Zm-16.402-20.913V53.38h8.464l-8.464-11.823Zm0 19.695h14.096l-4.808-6.686-1.021.033h-8.267v6.653Zm.857-20.486 8.958 12.515a6.303 6.303 0 0 0 3.656-2.206 6.114 6.114 0 0 0 1.449-4.018 6.278 6.278 0 0 0-.89-3.294 5.842 5.842 0 0 0-2.503-2.272c-.966-.483-2.228-.725-3.787-.725h-6.883Z" fill="#fff"/></svg>